<mxfile host="app.diagrams.net" modified="2022-12-04T13:28:05.614Z" agent="5.0 (X11; Ubuntu)" version="20.6.0" etag="f5obU05_yMIZwNAj5aS6" type="github">
  <diagram id="m9PMfBZhk3B97DJcjl-R" name="Page-1">
    <mxGraphModel dx="2568" dy="481" grid="1" gridSize="10" guides="1" tooltips="1" connect="1" arrows="1" fold="1" page="1" pageScale="1" pageWidth="850" pageHeight="1100" math="0" shadow="0">
      <root>
        <mxCell id="0" />
        <mxCell id="1" parent="0" />
        <mxCell id="6VMPx-9qV-DlEiWLGAsJ-2" value="" style="rounded=1;whiteSpace=wrap;html=1;" vertex="1" parent="1">
          <mxGeometry x="80" y="230" width="120" height="60" as="geometry" />
        </mxCell>
        <mxCell id="6VMPx-9qV-DlEiWLGAsJ-3" value="&lt;font style=&quot;font-size: 16px;&quot;&gt;Contact us&lt;/font&gt;" style="rounded=1;whiteSpace=wrap;html=1;" vertex="1" parent="1">
          <mxGeometry x="-1480" y="270" width="120" height="60" as="geometry" />
        </mxCell>
        <mxCell id="6VMPx-9qV-DlEiWLGAsJ-13" style="edgeStyle=orthogonalEdgeStyle;rounded=0;orthogonalLoop=1;jettySize=auto;html=1;exitX=0.5;exitY=1;exitDx=0;exitDy=0;strokeWidth=2;fontSize=16;startArrow=open;startFill=0;endArrow=open;endFill=0;" edge="1" parent="1" source="6VMPx-9qV-DlEiWLGAsJ-4" target="6VMPx-9qV-DlEiWLGAsJ-7">
          <mxGeometry relative="1" as="geometry" />
        </mxCell>
        <mxCell id="6VMPx-9qV-DlEiWLGAsJ-14" style="edgeStyle=orthogonalEdgeStyle;rounded=0;orthogonalLoop=1;jettySize=auto;html=1;strokeWidth=2;fontSize=16;startArrow=open;startFill=0;endArrow=open;endFill=0;" edge="1" parent="1" source="6VMPx-9qV-DlEiWLGAsJ-4" target="6VMPx-9qV-DlEiWLGAsJ-6">
          <mxGeometry relative="1" as="geometry" />
        </mxCell>
        <mxCell id="6VMPx-9qV-DlEiWLGAsJ-16" style="edgeStyle=orthogonalEdgeStyle;rounded=0;orthogonalLoop=1;jettySize=auto;html=1;strokeWidth=2;fontSize=16;startArrow=open;startFill=0;endArrow=open;endFill=0;" edge="1" parent="1" source="6VMPx-9qV-DlEiWLGAsJ-4" target="6VMPx-9qV-DlEiWLGAsJ-5">
          <mxGeometry relative="1" as="geometry" />
        </mxCell>
        <mxCell id="6VMPx-9qV-DlEiWLGAsJ-21" style="edgeStyle=orthogonalEdgeStyle;rounded=0;orthogonalLoop=1;jettySize=auto;html=1;exitX=0.5;exitY=1;exitDx=0;exitDy=0;strokeWidth=2;fontSize=16;startArrow=open;startFill=0;endArrow=open;endFill=0;" edge="1" parent="1" source="6VMPx-9qV-DlEiWLGAsJ-4" target="6VMPx-9qV-DlEiWLGAsJ-3">
          <mxGeometry relative="1" as="geometry" />
        </mxCell>
        <mxCell id="6VMPx-9qV-DlEiWLGAsJ-4" value="&lt;font style=&quot;font-size: 16px;&quot;&gt;Home page&lt;/font&gt;" style="rounded=1;whiteSpace=wrap;html=1;" vertex="1" parent="1">
          <mxGeometry x="-1240" y="130" width="120" height="60" as="geometry" />
        </mxCell>
        <mxCell id="6VMPx-9qV-DlEiWLGAsJ-5" value="&lt;font style=&quot;font-size: 16px;&quot;&gt;About us&lt;/font&gt;" style="rounded=1;whiteSpace=wrap;html=1;" vertex="1" parent="1">
          <mxGeometry x="-1320" y="270" width="120" height="60" as="geometry" />
        </mxCell>
        <mxCell id="6VMPx-9qV-DlEiWLGAsJ-6" value="&lt;font style=&quot;font-size: 16px;&quot;&gt;Calendar&lt;/font&gt;" style="rounded=1;whiteSpace=wrap;html=1;" vertex="1" parent="1">
          <mxGeometry x="-1160" y="270" width="120" height="60" as="geometry" />
        </mxCell>
        <mxCell id="6VMPx-9qV-DlEiWLGAsJ-10" style="edgeStyle=orthogonalEdgeStyle;rounded=0;orthogonalLoop=1;jettySize=auto;html=1;entryX=0.5;entryY=0;entryDx=0;entryDy=0;fontSize=16;strokeWidth=2;endArrow=open;endFill=0;startArrow=open;startFill=0;" edge="1" parent="1" source="6VMPx-9qV-DlEiWLGAsJ-7" target="6VMPx-9qV-DlEiWLGAsJ-8">
          <mxGeometry relative="1" as="geometry" />
        </mxCell>
        <mxCell id="6VMPx-9qV-DlEiWLGAsJ-11" style="edgeStyle=orthogonalEdgeStyle;rounded=0;orthogonalLoop=1;jettySize=auto;html=1;exitX=0.5;exitY=1;exitDx=0;exitDy=0;fontSize=16;strokeWidth=2;endArrow=open;endFill=0;startArrow=open;startFill=0;" edge="1" parent="1" source="6VMPx-9qV-DlEiWLGAsJ-7" target="6VMPx-9qV-DlEiWLGAsJ-9">
          <mxGeometry relative="1" as="geometry" />
        </mxCell>
        <mxCell id="6VMPx-9qV-DlEiWLGAsJ-7" value="&lt;font style=&quot;font-size: 16px;&quot;&gt;Academics&lt;/font&gt;" style="rounded=1;whiteSpace=wrap;html=1;" vertex="1" parent="1">
          <mxGeometry x="-1000" y="270" width="120" height="60" as="geometry" />
        </mxCell>
        <mxCell id="6VMPx-9qV-DlEiWLGAsJ-8" value="&lt;font style=&quot;font-size: 16px;&quot;&gt;Primary&lt;/font&gt; school" style="rounded=1;whiteSpace=wrap;html=1;fontSize=18;" vertex="1" parent="1">
          <mxGeometry x="-1070" y="410" width="111" height="60" as="geometry" />
        </mxCell>
        <mxCell id="6VMPx-9qV-DlEiWLGAsJ-9" value="&lt;font style=&quot;font-size: 16px;&quot;&gt;Secondary school&lt;/font&gt;" style="rounded=1;whiteSpace=wrap;html=1;fontSize=18;" vertex="1" parent="1">
          <mxGeometry x="-910" y="410" width="110" height="60" as="geometry" />
        </mxCell>
      </root>
    </mxGraphModel>
  </diagram>
</mxfile>
